<svg xmlns="http://www.w3.org/2000/svg" width="253.3" height="85.6" viewBox="697.53 347.99 253.30 85.59">
  <!-- Логотип REHAU, чёрный монохром -->
  <path fill="#000000" d="M739.42,359.96 L746.67,359.96 L746.67,367.21 L739.42,367.21 Z"/>
  <path fill="#000000" d="M739.42,369.93 L746.67,369.93 L746.67,377.18 L739.42,377.18 Z"/>
  <path fill="#000000" d="M739.42,379.90 L746.67,379.90 L746.67,387.16 L739.42,387.16 Z"/>
  <path fill="#000000" d="M729.44,349.99 L736.70,349.99 L736.70,357.24 L729.44,357.24 Z"/>
  <path fill="#000000" d="M729.44,359.96 L736.70,359.96 L736.70,367.21 L729.44,367.21 Z"/>
  <path fill="#000000" d="M729.44,369.93 L736.70,369.93 L736.70,377.18 L729.44,377.18 Z"/>
  <path fill="#000000" d="M729.44,379.90 L736.70,379.90 L736.70,387.16 L729.44,387.16 Z"/>
  <path fill="#000000" d="M729.44,389.87 L736.70,389.87 L736.70,397.13 L729.44,397.13 Z"/>
  <path fill="#000000" d="M719.47,349.99 L726.72,349.99 L726.72,357.24 L719.47,357.24 Z"/>
  <path fill="#000000" d="M719.47,359.96 L726.72,359.96 L726.72,367.21 L719.47,367.21 Z"/>
  <path fill="#000000" d="M719.47,369.93 L726.72,369.93 L726.72,377.18 L719.47,377.18 Z"/>
  <path fill="#000000" d="M719.47,379.90 L726.72,379.90 L726.72,387.16 L719.47,387.16 Z"/>
  <path fill="#000000" d="M719.47,389.87 L726.72,389.87 L726.72,397.13 L719.47,397.13 Z"/>
  <path fill="#000000" d="M709.50,349.99 L716.75,349.99 L716.75,357.24 L709.50,357.24 Z"/>
  <path fill="#000000" d="M709.50,359.96 L716.75,359.96 L716.75,367.21 L709.50,367.21 Z"/>
  <path fill="#000000" d="M709.50,369.93 L716.75,369.93 L716.75,377.18 L709.50,377.18 Z"/>
  <path fill="#000000" d="M699.53,359.96 L706.78,359.96 L706.78,367.21 L699.53,367.21 Z"/>
  <path fill="#000000" d="M699.53,369.93 L706.78,369.93 L706.78,377.18 L699.53,377.18 Z"/>
  <path fill="#000000" d="M709.50,379.90 L716.75,379.90 L716.75,387.16 L709.50,387.16 Z"/>
  <path fill="#000000" d="M860.44,404.37 C864.07,403.93 866.34,399.85 866.33,395.31 L866.33,377.18 L851.83,377.18 L851.83,397.13 C851.83,399.39 850.92,399.85 849.11,399.85 L845.93,399.85 L845.93,377.18 L831.43,377.18 L831.44,395.31 C831.43,399.85 833.70,403.93 837.32,404.37 C833.70,404.83 831.44,408.91 831.44,413.45 L831.43,431.57 L845.93,431.57 L845.93,411.63 C845.93,409.37 846.84,408.91 848.65,408.91 L851.83,408.91 L851.83,431.58 L866.33,431.58 L866.33,413.45 C866.34,408.91 864.07,404.83 860.44,404.37"/>
  <path fill="#000000" d="M934.32,377.18 L934.32,405.74 L931.15,405.74 C929.34,405.74 928.43,405.29 928.43,403.02 L928.43,377.18 L913.93,377.19 L913.93,405.74 C913.93,410.27 916.64,414.80 922.08,414.80 L934.32,414.80 L934.32,417.98 C934.32,419.79 933.87,420.70 931.60,420.70 L916.64,420.70 L916.64,431.57 L940.67,431.57 C946.11,431.57 948.83,427.04 948.83,422.51 L948.83,377.18 L934.32,377.18"/>
  <path fill="#000000" d="M880.84,377.18 C875.40,377.18 872.68,381.71 872.68,386.25 L872.68,431.57 L887.18,431.57 L887.19,408.91 L893.07,408.91 L893.07,431.57 L907.58,431.57 L907.58,377.18 L880.84,377.18 M893.07,399.85 L887.18,399.85 L887.18,388.97 C887.18,386.70 888.09,386.26 889.90,386.26 L893.07,386.25 L893.07,399.85"/>
  <path fill="#000000" d="M785.65,377.18 L760.72,377.19 L760.72,431.57 L775.22,431.57 L775.22,417.07 L785.65,417.07 C791.09,417.07 793.81,412.54 793.81,408.00 L793.81,386.25 C793.81,381.71 791.09,377.18 785.65,377.18 M781.12,405.29 C781.12,407.55 780.21,408.00 778.40,408.00 L775.23,408.00 C775.22,408.00 775.22,386.25 775.22,386.25 L778.40,386.25 C780.21,386.25 781.12,386.70 781.12,388.97 L781.12,405.29"/>
  <path fill="#000000" d="M814.66,388.06 L825.08,388.06 L825.08,377.18 L800.15,377.19 L800.15,431.57 L825.08,431.57 L825.08,420.70 L814.66,420.67 L814.66,408.91 L823.72,408.91 L823.72,399.85 L814.66,399.85 L814.66,388.06"/>
</svg>
